HIERARCHY
ROOT Hips
{
 OFFSET 0.000000 0.000000 0.000000
 CHANNELS 6 Xposition Yposition Zposition Yrotation Xrotation Zrotation
 JOINT Chest
 {
  OFFSET 0.000000 9.585900 0.002600
  CHANNELS 3 Yrotation Xrotation Zrotation
  JOINT Chest2
  {
   OFFSET 0.000000 9.601200 -0.005300
   CHANNELS 3 Yrotation Xrotation Zrotation
   JOINT Chest3
   {
    OFFSET 0.000000 9.561800 0.000000
    CHANNELS 3 Yrotation Xrotation Zrotation
    JOINT Chest4
    {
     OFFSET 0.000000 9.552100 0.000000
     CHANNELS 3 Yrotation Xrotation Zrotation
     JOINT Neck
     {
      OFFSET 0.000000 14.453000 0.000000
      CHANNELS 3 Yrotation Xrotation Zrotation
      JOINT Head
      {
       OFFSET 0.000000 8.936500 -0.011300
       CHANNELS 3 Yrotation Xrotation Zrotation
       End Site
       {
        OFFSET 0.000000 17.073600 -0.006000
       }
      }
     }
     JOINT RightCollar
     {
      OFFSET -2.921100 9.558500 0.000000
      CHANNELS 3 Yrotation Xrotation Zrotation
      JOINT RightShoulder
      {
       OFFSET -13.519700 0.000000 0.000000
       CHANNELS 3 Yrotation Xrotation Zrotation
       JOINT RightElbow
       {
        OFFSET 0.000000 -29.696600 0.000000
        CHANNELS 3 Yrotation Xrotation Zrotation
        JOINT RightWrist
        {
         OFFSET 0.000000 -24.004700 0.000000
         CHANNELS 3 Yrotation Xrotation Zrotation
         End Site
         {
          OFFSET 0.000000 -17.728500 0.000000
         }
        }
       }
      }
     }
     JOINT LeftCollar
     {
      OFFSET 2.921100 9.558500 0.000000
      CHANNELS 3 Yrotation Xrotation Zrotation
      JOINT LeftShoulder
      {
       OFFSET 13.519700 0.000000 0.000000
       CHANNELS 3 Yrotation Xrotation Zrotation
       JOINT LeftElbow
       {
        OFFSET 0.000000 -29.696600 0.000000
        CHANNELS 3 Yrotation Xrotation Zrotation
        JOINT LeftWrist
        {
         OFFSET 0.000000 -24.004700 0.000000
         CHANNELS 3 Yrotation Xrotation Zrotation
         End Site
         {
          OFFSET 0.000000 -17.728500 0.000000
         }
        }
       }
      }
     }
    }
   }
  }
 }
 JOINT RightHip
 {
  OFFSET -7.771700 -0.012900 -0.001300
  CHANNELS 3 Yrotation Xrotation Zrotation
  JOINT RightKnee
  {
   OFFSET 0.000000 -40.869800 0.001200
   CHANNELS 3 Yrotation Xrotation Zrotation
   JOINT RightAnkle
   {
    OFFSET 0.000000 -39.717900 0.002100
    CHANNELS 3 Yrotation Xrotation Zrotation
    JOINT RightToe
    {
     OFFSET 0.000000 -4.965400 11.033500
     CHANNELS 3 Yrotation Xrotation Zrotation
     End Site
     {
      OFFSET 0.000000 -1.423100 5.872300
     }
    }
   }
  }
 }
 JOINT LeftHip
 {
  OFFSET 7.771700 -0.012900 -0.001300
  CHANNELS 3 Yrotation Xrotation Zrotation
  JOINT LeftKnee
  {
   OFFSET 0.000000 -40.869800 0.001200
   CHANNELS 3 Yrotation Xrotation Zrotation
   JOINT LeftAnkle
   {
    OFFSET 0.000000 -39.717900 0.002100
    CHANNELS 3 Yrotation Xrotation Zrotation
    JOINT LeftToe
    {
     OFFSET 0.000000 -4.965400 11.033500
     CHANNELS 3 Yrotation Xrotation Zrotation
     End Site
     {
      OFFSET 0.000000 -1.423100 5.872300
     }
    }
   }
  }
 }
}
MOTION
Frames: 12
Frame Time: 0.008333
-100.638706 49.050170 20.715111 177.165728 -29.599247 -3.211332 1.302103 18.711831 1.468144 0.100570 2.129319 0.105715 0.254653 3.616889 0.201813 1.154004 16.254440 1.034390 3.717441 16.027802 -4.961242 8.644148 -5.560590 -10.518012 -0.788298 -4.638939 -3.135219 6.362278 -6.688057 -12.289906 -39.778662 -47.786988 89.582327 3.120833 2.358006 -14.386280 0.582291 -2.903229 2.418646 -6.905726 -0.411135 14.698293 92.225290 -73.375776 -128.442835 2.943569 9.228762 6.635870 -8.854025 -53.605727 -6.131049 -149.048360 80.624508 -135.673961 -29.179050 -6.053651 -2.874643 0.121595 -13.418371 -1.216317 -12.748942 -56.810880 18.841253 -73.866492 65.401725 -79.282672 30.739644 6.149383 16.214431 -0.027477 -0.321656 -0.014275
-100.614162 49.095005 20.713657 177.197804 -29.589899 -3.222500 1.308401 18.742322 1.491763 0.102057 2.131969 0.096962 0.227300 3.587015 0.195469 1.157197 16.272287 1.025966 3.734018 16.011139 -4.978280 8.684142 -5.636939 -10.560865 -0.750343 -4.604892 -3.146144 6.379588 -6.733097 -12.361486 -39.826140 -47.717376 89.616942 3.099452 2.464016 -14.465019 0.569653 -2.838967 2.397010 -6.905387 -0.400085 14.595040 91.826339 -73.411581 -127.935838 2.870414 9.173205 6.692194 -8.901711 -53.628052 -6.106039 -149.050422 80.616133 -135.667970 -29.192726 -5.992567 -2.990517 0.106591 -13.489986 -1.119058 -12.818189 -56.791705 18.893502 -73.797919 65.382523 -79.240684 30.775161 6.201578 16.218150 -0.032033 -0.373491 -0.016055
-100.597277 49.134743 20.715128 177.291525 -29.550822 -3.220097 1.239287 18.746887 1.468103 0.125027 2.166602 0.108153 0.204432 3.559904 0.180960 1.135913 16.282196 1.006222 3.738677 15.967383 -4.984027 8.724888 -5.692464 -10.589507 -0.719567 -4.596664 -3.159872 6.388205 -6.776857 -12.420963 -39.863024 -47.652577 89.648215 3.067139 2.569618 -14.553358 0.547353 -2.805813 2.379036 -6.907272 -0.388828 14.490569 91.605968 -73.469501 -127.635875 2.864736 9.163197 6.795539 -8.917594 -53.682346 -6.163635 -149.042956 80.594489 -135.645621 -29.226749 -5.948383 -3.103341 0.080169 -13.545194 -1.000301 -12.892241 -56.806337 18.881987 -73.689191 65.384131 -79.155768 30.757727 6.256445 16.199191 0.011754 -0.400677 -0.004117
-100.580397 49.171098 20.715768 177.367631 -29.513445 -3.213103 1.183243 18.749230 1.449015 0.105224 2.141442 0.092060 0.237184 3.634711 0.204274 1.092209 16.252087 0.973557 3.741929 15.917084 -4.984603 8.769135 -5.717931 -10.600807 -0.687768 -4.587968 -3.170266 6.394018 -6.816367 -12.476891 -39.706648 -47.511331 89.546867 3.104225 2.546389 -14.661306 0.528526 -2.775389 2.363088 -6.910322 -0.376201 14.381361 91.487310 -73.539439 -127.453419 2.896798 9.188728 6.923297 -8.909453 -53.735914 -6.212845 -149.015438 80.572225 -135.601534 -29.278583 -5.904977 -3.216370 0.031952 -13.596571 -0.866251 -12.960095 -56.823326 18.874776 -73.591063 65.381252 -79.081718 30.763005 6.313311 16.188470 0.010673 -0.441351 0.003060
-100.565208 49.204343 20.713990 177.445901 -29.484683 -3.204109 1.124454 18.754910 1.430021 0.103284 2.149554 0.086981 0.223930 3.624194 0.199750 1.067461 16.293298 0.960787 3.764368 15.872299 -4.992109 8.793583 -5.739457 -10.587612 -0.653678 -4.596971 -3.177973 6.397977 -6.848151 -12.531909 -39.621740 -47.392293 89.479031 3.109979 2.565717 -14.751733 0.529038 -2.802086 2.350597 -6.928658 -0.325404 14.255578 91.356893 -73.602353 -127.262544 2.923377 9.232835 7.051123 -8.885884 -53.780540 -6.258249 -148.987504 80.552715 -135.591685 -29.305248 -5.842620 -3.307938 -0.030754 -13.642751 -0.728845 -13.026774 -56.832807 18.861712 -73.495645 65.378735 -79.007025 30.757919 6.372903 16.168814 0.019651 -0.479962 0.012479
-100.551028 49.233674 20.711278 177.524227 -29.452943 -3.199762 1.068039 18.752055 1.418807 0.118990 2.182297 0.108292 0.181819 3.575506 0.158685 1.056144 16.305857 0.956881 3.775998 15.878681 -4.984439 8.816365 -5.739858 -10.560306 -0.632591 -4.559943 -3.179407 6.400293 -6.875306 -12.581819 -39.573612 -47.287682 89.430924 3.085307 2.600748 -14.837801 0.524098 -2.782423 2.340572 -6.950230 -0.280365 14.132208 91.219991 -73.657543 -127.068963 2.938957 9.293385 7.174269 -8.864095 -53.826962 -6.297655 -148.806593 80.502475 -135.423796 -29.294503 -5.793805 -3.416972 -0.060288 -13.680543 -0.582990 -13.140104 -56.828093 18.894058 -73.357593 65.368082 -78.910590 30.739903 6.415030 16.144472 0.043852 -0.494034 0.022533
-100.538387 49.258448 20.709075 177.616234 -29.405937 -3.206898 0.999322 18.730971 1.413361 0.113550 2.184407 0.107618 0.178879 3.582003 0.155258 1.017041 16.314562 0.943444 3.791460 15.875465 -4.974892 8.826117 -5.719649 -10.516185 -0.610802 -4.541853 -3.187251 6.399371 -6.896585 -12.622674 -39.532769 -47.183022 89.385874 3.051811 2.633010 -14.921538 0.504301 -2.742884 2.321439 -6.952297 -0.277122 14.018995 91.093427 -73.706796 -126.887863 2.943087 9.368812 7.289608 -8.876590 -53.885784 -6.315047 -148.584423 80.456175 -135.206940 -29.349510 -5.762487 -3.519735 -0.063167 -13.708787 -0.441028 -13.230831 -56.856030 18.890703 -73.254039 65.370695 -78.808858 30.721623 6.475665 16.116195 0.077032 -0.516395 0.030259
-100.529108 49.284686 20.696987 177.738153 -29.412426 -3.222706 0.903722 18.762733 1.402836 0.107628 2.186107 0.107186 0.169452 3.587941 0.153196 0.951271 16.344736 0.946539 3.811759 15.912588 -4.926068 8.843054 -5.721463 -10.524110 -0.560533 -4.546432 -3.221975 6.394971 -6.908284 -12.652293 -39.533384 -47.144283 89.390887 2.956655 2.686907 -15.020818 0.511917 -2.729814 2.280002 -6.950961 -0.269358 13.905654 90.987703 -73.752129 -126.732635 2.937873 9.456794 7.400216 -8.896582 -53.892908 -6.337684 -148.340240 80.387235 -135.012573 -29.390517 -5.734304 -3.520973 -0.147784 -13.725190 -0.339281 -13.277073 -56.847409 18.816839 -73.223285 65.371567 -78.775235 30.747133 6.585392 16.111589 0.085210 -0.619188 0.031966
-100.525328 49.306529 20.685943 177.857106 -29.398102 -3.223290 0.802696 18.771859 1.377337 0.101141 2.187311 0.107046 0.164015 3.592941 0.150790 0.889968 16.354637 0.945586 3.831851 15.920956 -4.920036 8.841279 -5.659265 -10.440880 -0.537834 -4.479924 -3.236650 6.409630 -6.984654 -12.689268 -39.511863 -47.097734 89.369322 2.860638 2.719925 -15.119476 0.508033 -2.703386 2.255637 -6.950742 -0.257278 13.789718 90.907347 -73.794794 -126.608588 2.926033 9.553376 7.509707 -8.895870 -53.918925 -6.383225 -148.142244 80.318874 -134.876403 -29.418596 -5.711354 -3.460892 -0.195074 -13.733565 -0.294401 -13.337229 -56.850660 18.752827 -73.147417 65.371791 -78.705476 30.727792 6.628857 16.087605 0.108864 -0.639014 0.043283
-100.526662 49.323597 20.677610 177.961082 -29.353354 -3.207067 0.707502 18.748040 1.339967 0.088016 2.180597 0.093721 0.164808 3.621693 0.192819 0.823518 16.340097 0.912137 3.857203 15.915295 -4.942646 8.822719 -5.560697 -10.292001 -0.516710 -4.451591 -3.256436 6.424842 -7.010457 -12.713608 -39.433713 -46.899078 89.251264 2.920098 2.681565 -15.160799 0.500115 -2.673387 2.239595 -6.955756 -0.245960 13.678480 90.849181 -73.835807 -126.508399 2.909820 9.646245 7.612682 -8.851168 -53.974089 -6.465738 -147.967337 80.265631 -134.722100 -29.507856 -5.695023 -3.528475 -0.212855 -13.742131 -0.139902 -13.405688 -56.880940 18.695392 -73.035553 65.376559 -78.597674 30.688320 6.608529 16.054373 0.128110 -0.578932 0.051441
-100.521020 49.339197 20.668870 178.022819 -29.308109 -3.233361 0.667709 18.718851 1.366583 0.077807 2.175363 0.081963 0.157627 3.622043 0.193121 0.773659 16.352117 0.925657 3.868077 15.954404 -4.906698 8.814779 -5.483877 -10.188415 -0.482893 -4.445870 -3.288071 6.410277 -6.987583 -12.727043 -39.422340 -46.775512 89.223487 2.924177 2.661998 -15.211205 0.497658 -2.649202 2.224816 -6.971948 -0.236624 13.579476 90.805067 -73.875559 -126.422328 2.893551 9.720624 7.700760 -8.830717 -54.014756 -6.477000 -147.828431 80.230789 -134.560799 -29.543845 -5.686740 -3.594649 -0.154466 -13.745827 -0.050244 -13.484823 -56.917131 18.715455 -73.006498 65.377766 -78.561718 30.694959 6.633387 16.043332 0.125812 -0.593934 0.052843
-100.518951 49.356139 20.654062 178.076559 -29.297827 -3.255043 0.634027 18.722587 1.389903 0.072313 2.178303 0.085498 0.146345 3.615654 0.180436 0.723309 16.363188 0.940720 3.878389 15.999368 -4.859764 8.800842 -5.401388 -10.074926 -0.448256 -4.437418 -3.322817 6.332156 -6.912462 -12.726600 -39.430357 -46.732286 89.284218 2.902285 2.643671 -15.262369 0.435326 -2.616261 2.253234 -6.935572 -0.245929 13.458844 90.779595 -73.913654 -126.355697 2.878018 9.756327 7.768651 -8.674606 -54.014431 -6.549329 -147.655441 80.177895 -134.349872 -29.607782 -5.677892 -3.552926 -0.197233 -13.729144 0.014948 -13.540892 -56.920395 18.720506 -72.992181 65.378427 -78.552313 30.708179 6.651635 16.045608 0.117949 -0.615239 0.050381
